<svg width="507" height="116" viewBox="0 0 507 116" fill="none" xmlns="http://www.w3.org/2000/svg">
<path d="M22.4502 67.3508C10.0513 54.9519 10.0513 34.8493 22.4502 22.4503V22.4503C34.8492 10.0514 54.9518 10.0514 67.3507 22.4503L115.273 70.373L74.9061 110.74C72.4024 113.244 68.3433 113.244 65.8396 110.74L22.4502 67.3508Z" fill="#6F52EC"/>
<g style="mix-blend-mode:soft-light" opacity="0.2" filter="url(#filter0_f_1081_1467)">
<path d="M70.4591 67.1006C65.7602 70.8827 55.5512 85.4684 51.2263 95.4919L58.0952 97.0183L100.53 59.4685L94.7291 52.447C88.827 54.126 76.7174 62.0634 70.4591 67.1006Z" fill="#1E1E1E"/>
</g>
<path d="M124.613 61.142C133.583 52.1721 133.583 37.6291 124.613 28.6592V28.6592C115.643 19.6894 101.1 19.6894 92.1303 28.6592L37.944 82.8455L65.8935 110.795C68.3971 113.299 72.4563 113.299 74.9599 110.795L124.613 61.142Z" fill="#8068E2"/>
<path d="M165.32 34.5383V26.8543H175.48V34.5383H165.32ZM166.088 83.4597V50.077H159.941L160.795 42.9907H175.394V83.4597H166.088ZM181.128 83.4597V42.9907H189.666L190.093 47.2596C192.085 45.6659 194.276 44.4137 196.667 43.503C199.057 42.5923 201.619 42.1369 204.351 42.1369C207.253 42.1369 209.502 42.6207 211.095 43.5883C212.746 44.499 213.998 45.7797 214.852 47.4303C216.73 45.8935 218.893 44.6413 221.341 43.6737C223.788 42.6492 226.72 42.1369 230.135 42.1369C234.802 42.1369 238.246 43.3322 240.465 45.7228C242.685 48.1134 243.795 51.7846 243.795 56.7365V83.4597H234.66V57.6757C234.66 54.5451 234.005 52.3538 232.696 51.1016C231.387 49.8494 229.252 49.2233 226.293 49.2233C224.357 49.2233 222.508 49.5648 220.743 50.2478C219.036 50.9308 217.556 51.9554 216.303 53.3214C216.474 53.9475 216.588 54.6021 216.645 55.2851C216.702 55.9681 216.73 56.708 216.73 57.5049V83.4597H208.107V57.761C208.107 54.8013 207.595 52.6384 206.57 51.2723C205.546 49.9063 203.611 49.2233 200.765 49.2233C198.773 49.2233 196.866 49.7071 195.044 50.6747C193.28 51.5854 191.686 52.6953 190.263 54.0044V83.4597H181.128ZM268.783 84.3135C261.726 84.3135 256.261 82.5775 252.391 79.1055C248.52 75.6334 246.585 70.3116 246.585 63.1398C246.585 56.6511 248.236 51.5285 251.537 47.7718C254.838 44.0152 259.847 42.1369 266.564 42.1369C272.711 42.1369 277.321 43.7591 280.395 47.0034C283.525 50.1909 285.091 54.3175 285.091 59.3832V66.8964H255.464C255.92 70.8238 257.343 73.5274 259.733 75.0073C262.124 76.4872 265.767 77.2271 270.662 77.2271C272.711 77.2271 274.817 77.0279 276.98 76.6295C279.143 76.2311 281.021 75.7188 282.615 75.0927V81.9229C280.793 82.7198 278.687 83.3174 276.297 83.7158C273.963 84.1143 271.459 84.3135 268.783 84.3135ZM255.464 60.8346H276.894V58.0172C276.894 55.2282 276.126 53.0653 274.589 51.5285C273.052 49.9347 270.462 49.1379 266.82 49.1379C262.494 49.1379 259.506 50.077 257.855 51.9554C256.261 53.8337 255.464 56.7934 255.464 60.8346ZM289.027 83.4597V42.9907H297.565L298.077 47.6865C300.013 46.4343 302.318 45.2959 304.993 44.2714C307.668 43.2468 310.315 42.5353 312.933 42.1369V49.2233C311.339 49.5079 309.603 49.9347 307.725 50.5039C305.904 51.0162 304.168 51.6138 302.517 52.2969C300.866 52.923 299.472 53.5775 298.333 54.2606V83.4597H289.027ZM327.66 84.3135C324.871 84.3135 322.196 84.1143 319.634 83.7158C317.13 83.3174 315.053 82.8336 313.402 82.2644V74.4097C315.337 75.1496 317.472 75.7188 319.805 76.1172C322.139 76.5157 324.359 76.7149 326.465 76.7149C329.652 76.7149 331.929 76.4303 333.295 75.8611C334.661 75.2919 335.344 74.182 335.344 72.5314C335.344 71.3361 334.917 70.3969 334.063 69.7139C333.266 69.0309 332.043 68.4048 330.392 67.8356C328.798 67.2664 326.749 66.5834 324.245 65.7865C321.854 64.9897 319.777 64.1359 318.012 63.2252C316.248 62.2576 314.882 61.0338 313.914 59.554C312.947 58.0741 312.463 56.1389 312.463 53.7483C312.463 50.0486 313.8 47.2027 316.475 45.2105C319.151 43.1615 323.448 42.1369 329.368 42.1369C331.701 42.1369 333.921 42.3077 336.027 42.6492C338.133 42.9907 339.926 43.4176 341.406 43.9298V51.6992C339.812 51.0731 338.048 50.5893 336.112 50.2478C334.234 49.9063 332.47 49.7355 330.819 49.7355C327.859 49.7355 325.611 49.9917 324.074 50.5039C322.594 51.0162 321.854 52.0407 321.854 53.5775C321.854 55.1712 322.623 56.3096 324.159 56.9926C325.753 57.6187 328.286 58.501 331.758 59.6393C334.946 60.607 337.478 61.6315 339.357 62.7129C341.235 63.7944 342.573 65.1035 343.369 66.6403C344.223 68.1202 344.65 70.0554 344.65 72.446C344.65 76.4303 343.199 79.4185 340.296 81.4107C337.393 83.3459 333.181 84.3135 327.66 84.3135ZM352.067 34.5383V26.8543H362.227V34.5383H352.067ZM352.835 83.4597V50.077H346.688L347.542 42.9907H362.141V83.4597H352.835ZM380.465 83.4597L364.5 42.9907H374.147L385.503 74.4097L396.858 42.9907H406.42L390.54 83.4597H380.465ZM419.244 84.3135C416.683 84.3135 414.292 83.8581 412.072 82.9475C409.91 82.0368 408.174 80.6707 406.864 78.8493C405.555 76.971 404.901 74.6658 404.901 71.9337C404.901 68.0633 406.21 64.9612 408.828 62.6276C411.503 60.237 415.601 59.0417 421.123 59.0417H434.1V57.2488C434.1 55.3135 433.787 53.7767 433.161 52.6384C432.592 51.5 431.51 50.6747 429.916 50.1624C428.38 49.6502 426.103 49.394 423.086 49.394C418.305 49.394 413.837 50.1055 409.682 51.5285V44.6129C411.503 43.8729 413.723 43.2753 416.341 42.8199C418.96 42.3646 421.777 42.1369 424.794 42.1369C430.713 42.1369 435.21 43.3322 438.283 45.7228C441.414 48.1134 442.979 52.0123 442.979 57.4195V83.4597H435.039L434.441 79.3616C432.791 80.9553 430.742 82.1791 428.294 83.0328C425.904 83.8866 422.887 84.3135 419.244 84.3135ZM421.72 77.654C424.509 77.654 426.928 77.1987 428.977 76.288C431.083 75.3204 432.791 74.0397 434.1 72.446V65.3596H421.293C418.561 65.3596 416.569 65.9004 415.317 66.9818C414.122 68.0064 413.524 69.6001 413.524 71.763C413.524 73.869 414.235 75.3773 415.658 76.288C417.081 77.1987 419.102 77.654 421.72 77.654Z" fill="#6F52EC"/>
<path d="M450.087 77.9189V56.9729H454.51L460.657 69.56L466.804 56.9729H471.195V77.9189H466.804V64.291L461.926 74.3087H459.389L454.477 64.291V77.9189H450.087ZM480.975 78.2442C478.308 78.2442 476.194 77.5828 474.633 76.2602C473.072 74.9158 472.291 72.8884 472.291 70.178C472.291 67.7278 472.942 65.7872 474.243 64.3561C475.565 62.9033 477.528 62.1769 480.13 62.1769C482.515 62.1769 484.336 62.8057 485.594 64.0634C486.873 65.2993 487.513 66.9255 487.513 68.9421V71.7392H476.357C476.595 72.9752 477.159 73.8208 478.048 74.2761C478.959 74.7315 480.238 74.9592 481.886 74.9592C482.71 74.9592 483.545 74.8833 484.39 74.7315C485.258 74.5797 485.995 74.3846 486.602 74.146V77.2684C485.887 77.5937 485.052 77.8322 484.098 77.984C483.144 78.1574 482.103 78.2442 480.975 78.2442ZM476.357 69.0397H483.675V68.194C483.675 67.305 483.415 66.6111 482.894 66.1124C482.374 65.592 481.496 65.3318 480.26 65.3318C478.807 65.3318 477.788 65.6245 477.202 66.21C476.639 66.7954 476.357 67.7387 476.357 69.0397ZM495.058 78.2442C493.692 78.2442 492.467 78.0057 491.383 77.5286C490.32 77.0299 489.486 76.2276 488.879 75.1218C488.271 73.9943 487.968 72.509 487.968 70.6659C487.968 68.8228 488.304 67.2725 488.976 66.0148C489.648 64.7572 490.548 63.8032 491.676 63.1527C492.803 62.5022 494.039 62.1769 495.384 62.1769C497.075 62.1769 498.517 62.5672 499.709 63.3478V55.9972H504.1V77.9189H500.327L500.067 76.4878C499.395 77.0733 498.658 77.5178 497.855 77.8214C497.075 78.1032 496.142 78.2442 495.058 78.2442ZM496.262 75.0242C497.628 75.0242 498.777 74.558 499.709 73.6257V66.6003C498.799 65.798 497.736 65.3969 496.522 65.3969C493.79 65.3969 492.424 67.1532 492.424 70.6659C492.424 72.3138 492.76 73.4522 493.432 74.081C494.104 74.7098 495.047 75.0242 496.262 75.0242Z" fill="#6F52EC"/>
<defs>
<filter id="filter0_f_1081_1467" x="45.1817" y="46.4024" width="61.3924" height="56.6605" filterUnits="userSpaceOnUse" color-interpolation-filters="sRGB">
<feFlood flood-opacity="0" result="BackgroundImageFix"/>
<feBlend mode="normal" in="SourceGraphic" in2="BackgroundImageFix" result="shape"/>
<feGaussianBlur stdDeviation="3.0223" result="effect1_foregroundBlur_1081_1467"/>
</filter>
</defs>
</svg>
